<mxfile host="app.diagrams.net" modified="2024-06-19T06:55:31.802Z" agent="Mozilla/5.0 (X11; Linux x86_64) AppleWebKit/537.36 (KHTML, like Gecko) Chrome/123.0.0.0 Safari/537.36" etag="IXjd9p_pzxpQ_HA_6ytq" version="23.1.6" type="github">
  <diagram id="C5RBs43oDa-KdzZeNtuy" name="Page-1">
    <mxGraphModel dx="1753" dy="451" grid="1" gridSize="10" guides="1" tooltips="1" connect="1" arrows="1" fold="1" page="1" pageScale="1" pageWidth="827" pageHeight="1169" math="0" shadow="0">
      <root>
        <mxCell id="WIyWlLk6GJQsqaUBKTNV-0" />
        <mxCell id="WIyWlLk6GJQsqaUBKTNV-1" parent="WIyWlLk6GJQsqaUBKTNV-0" />
        <mxCell id="OANcIgUyjoXv6Bcw8BOX-14" style="edgeStyle=orthogonalEdgeStyle;rounded=0;orthogonalLoop=1;jettySize=auto;html=1;exitX=0.5;exitY=1;exitDx=0;exitDy=0;entryX=0.5;entryY=0;entryDx=0;entryDy=0;" edge="1" parent="WIyWlLk6GJQsqaUBKTNV-1" source="WIyWlLk6GJQsqaUBKTNV-3" target="OANcIgUyjoXv6Bcw8BOX-0">
          <mxGeometry relative="1" as="geometry" />
        </mxCell>
        <mxCell id="WIyWlLk6GJQsqaUBKTNV-3" value="Calcul de la demande de lecture" style="rounded=1;whiteSpace=wrap;html=1;fontSize=12;glass=0;strokeWidth=1;shadow=0;" parent="WIyWlLk6GJQsqaUBKTNV-1" vertex="1">
          <mxGeometry x="160" y="80" width="120" height="40" as="geometry" />
        </mxCell>
        <mxCell id="OANcIgUyjoXv6Bcw8BOX-15" style="edgeStyle=orthogonalEdgeStyle;rounded=0;orthogonalLoop=1;jettySize=auto;html=1;" edge="1" parent="WIyWlLk6GJQsqaUBKTNV-1" source="OANcIgUyjoXv6Bcw8BOX-0" target="OANcIgUyjoXv6Bcw8BOX-1">
          <mxGeometry relative="1" as="geometry" />
        </mxCell>
        <mxCell id="OANcIgUyjoXv6Bcw8BOX-0" value="Vérification des conditions de calcul" style="rounded=1;whiteSpace=wrap;html=1;fontSize=12;glass=0;strokeWidth=1;shadow=0;" vertex="1" parent="WIyWlLk6GJQsqaUBKTNV-1">
          <mxGeometry x="160" y="150" width="120" height="40" as="geometry" />
        </mxCell>
        <mxCell id="OANcIgUyjoXv6Bcw8BOX-17" style="edgeStyle=orthogonalEdgeStyle;rounded=0;orthogonalLoop=1;jettySize=auto;html=1;exitX=0;exitY=0.5;exitDx=0;exitDy=0;entryX=1;entryY=0.5;entryDx=0;entryDy=0;" edge="1" parent="WIyWlLk6GJQsqaUBKTNV-1" source="OANcIgUyjoXv6Bcw8BOX-1" target="OANcIgUyjoXv6Bcw8BOX-9">
          <mxGeometry relative="1" as="geometry" />
        </mxCell>
        <mxCell id="OANcIgUyjoXv6Bcw8BOX-18" value="No" style="edgeLabel;html=1;align=center;verticalAlign=middle;resizable=0;points=[];" vertex="1" connectable="0" parent="OANcIgUyjoXv6Bcw8BOX-17">
          <mxGeometry x="-0.18" y="1" relative="1" as="geometry">
            <mxPoint x="6" y="-11" as="offset" />
          </mxGeometry>
        </mxCell>
        <mxCell id="OANcIgUyjoXv6Bcw8BOX-1" value="Conditions OK" style="rhombus;whiteSpace=wrap;html=1;shadow=0;fontFamily=Helvetica;fontSize=12;align=center;strokeWidth=1;spacing=6;spacingTop=-4;" vertex="1" parent="WIyWlLk6GJQsqaUBKTNV-1">
          <mxGeometry x="170" y="230" width="100" height="80" as="geometry" />
        </mxCell>
        <mxCell id="OANcIgUyjoXv6Bcw8BOX-3" value="Yes" style="rounded=0;html=1;jettySize=auto;orthogonalLoop=1;fontSize=11;endArrow=block;endFill=0;endSize=8;strokeWidth=1;shadow=0;labelBackgroundColor=none;edgeStyle=orthogonalEdgeStyle;" edge="1" parent="WIyWlLk6GJQsqaUBKTNV-1" source="OANcIgUyjoXv6Bcw8BOX-1">
          <mxGeometry x="-0.6016" y="10" relative="1" as="geometry">
            <mxPoint as="offset" />
            <mxPoint x="219.74" y="320" as="sourcePoint" />
            <mxPoint x="219.74" y="360" as="targetPoint" />
          </mxGeometry>
        </mxCell>
        <mxCell id="OANcIgUyjoXv6Bcw8BOX-27" style="edgeStyle=orthogonalEdgeStyle;rounded=0;orthogonalLoop=1;jettySize=auto;html=1;" edge="1" parent="WIyWlLk6GJQsqaUBKTNV-1" source="OANcIgUyjoXv6Bcw8BOX-5" target="OANcIgUyjoXv6Bcw8BOX-22">
          <mxGeometry relative="1" as="geometry" />
        </mxCell>
        <mxCell id="OANcIgUyjoXv6Bcw8BOX-5" value="Déterminer la période de calcul (from_date, to_date)" style="rounded=1;whiteSpace=wrap;html=1;fontSize=12;glass=0;strokeWidth=1;shadow=0;" vertex="1" parent="WIyWlLk6GJQsqaUBKTNV-1">
          <mxGeometry x="160" y="490" width="120" height="50" as="geometry" />
        </mxCell>
        <mxCell id="OANcIgUyjoXv6Bcw8BOX-20" style="edgeStyle=orthogonalEdgeStyle;rounded=0;orthogonalLoop=1;jettySize=auto;html=1;" edge="1" parent="WIyWlLk6GJQsqaUBKTNV-1" source="OANcIgUyjoXv6Bcw8BOX-6" target="OANcIgUyjoXv6Bcw8BOX-10">
          <mxGeometry relative="1" as="geometry" />
        </mxCell>
        <mxCell id="OANcIgUyjoXv6Bcw8BOX-21" value="Yes" style="edgeLabel;html=1;align=center;verticalAlign=middle;resizable=0;points=[];" vertex="1" connectable="0" parent="OANcIgUyjoXv6Bcw8BOX-20">
          <mxGeometry x="-0.32" relative="1" as="geometry">
            <mxPoint x="4" y="-10" as="offset" />
          </mxGeometry>
        </mxCell>
        <mxCell id="OANcIgUyjoXv6Bcw8BOX-6" value="Début de période" style="rhombus;whiteSpace=wrap;html=1;shadow=0;fontFamily=Helvetica;fontSize=12;align=center;strokeWidth=1;spacing=6;spacingTop=-4;" vertex="1" parent="WIyWlLk6GJQsqaUBKTNV-1">
          <mxGeometry x="170" y="360" width="100" height="80" as="geometry" />
        </mxCell>
        <mxCell id="OANcIgUyjoXv6Bcw8BOX-8" value="Yes" style="rounded=0;html=1;jettySize=auto;orthogonalLoop=1;fontSize=11;endArrow=block;endFill=0;endSize=8;strokeWidth=1;shadow=0;labelBackgroundColor=none;edgeStyle=orthogonalEdgeStyle;exitX=0.5;exitY=1;exitDx=0;exitDy=0;" edge="1" parent="WIyWlLk6GJQsqaUBKTNV-1" source="OANcIgUyjoXv6Bcw8BOX-6">
          <mxGeometry x="-0.6026" y="10" relative="1" as="geometry">
            <mxPoint as="offset" />
            <mxPoint x="219.77" y="450" as="sourcePoint" />
            <mxPoint x="219.77" y="490" as="targetPoint" />
          </mxGeometry>
        </mxCell>
        <mxCell id="OANcIgUyjoXv6Bcw8BOX-9" value="Stop (avec message d&#39;erreur)" style="rounded=1;whiteSpace=wrap;html=1;fontSize=12;glass=0;strokeWidth=1;shadow=0;" vertex="1" parent="WIyWlLk6GJQsqaUBKTNV-1">
          <mxGeometry x="10" y="250" width="120" height="40" as="geometry" />
        </mxCell>
        <mxCell id="OANcIgUyjoXv6Bcw8BOX-10" value="state=CLOSED" style="rounded=1;whiteSpace=wrap;html=1;fontSize=12;glass=0;strokeWidth=1;shadow=0;" vertex="1" parent="WIyWlLk6GJQsqaUBKTNV-1">
          <mxGeometry x="10" y="380" width="120" height="40" as="geometry" />
        </mxCell>
        <mxCell id="OANcIgUyjoXv6Bcw8BOX-30" style="edgeStyle=orthogonalEdgeStyle;rounded=0;orthogonalLoop=1;jettySize=auto;html=1;entryX=0.5;entryY=0;entryDx=0;entryDy=0;" edge="1" parent="WIyWlLk6GJQsqaUBKTNV-1" source="OANcIgUyjoXv6Bcw8BOX-22" target="OANcIgUyjoXv6Bcw8BOX-29">
          <mxGeometry relative="1" as="geometry" />
        </mxCell>
        <mxCell id="OANcIgUyjoXv6Bcw8BOX-22" value="Trouver toutes les sceconfiguration&amp;nbsp;" style="rounded=1;whiteSpace=wrap;html=1;fontSize=12;glass=0;strokeWidth=1;shadow=0;" vertex="1" parent="WIyWlLk6GJQsqaUBKTNV-1">
          <mxGeometry x="160" y="585" width="120" height="50" as="geometry" />
        </mxCell>
        <mxCell id="OANcIgUyjoXv6Bcw8BOX-24" style="edgeStyle=orthogonalEdgeStyle;rounded=0;orthogonalLoop=1;jettySize=auto;html=1;entryX=0;entryY=0.5;entryDx=0;entryDy=0;" edge="1" parent="WIyWlLk6GJQsqaUBKTNV-1" source="OANcIgUyjoXv6Bcw8BOX-23" target="OANcIgUyjoXv6Bcw8BOX-22">
          <mxGeometry relative="1" as="geometry" />
        </mxCell>
        <mxCell id="OANcIgUyjoXv6Bcw8BOX-23" value="&lt;font style=&quot;font-size: 8px;&quot;&gt;Si le type de processus est lié à une configuration de mesure, les sceconfiguration sont filtrées par cette configuration de mesure&lt;/font&gt;" style="shape=note;whiteSpace=wrap;html=1;backgroundOutline=1;darkOpacity=0.05;" vertex="1" parent="WIyWlLk6GJQsqaUBKTNV-1">
          <mxGeometry y="520" width="120" height="130" as="geometry" />
        </mxCell>
        <mxCell id="OANcIgUyjoXv6Bcw8BOX-28" value="Pour chaque sceconfiguration" style="swimlane;horizontal=0;whiteSpace=wrap;html=1;" vertex="1" parent="WIyWlLk6GJQsqaUBKTNV-1">
          <mxGeometry x="100" y="700" width="220" height="310" as="geometry">
            <mxRectangle x="150" y="670" width="40" height="150" as="alternateBounds" />
          </mxGeometry>
        </mxCell>
        <mxCell id="OANcIgUyjoXv6Bcw8BOX-29" value="Trouver une période de calcul déjà crée ou en crée un nouvelle" style="rounded=1;whiteSpace=wrap;html=1;fontSize=12;glass=0;strokeWidth=1;shadow=0;" vertex="1" parent="OANcIgUyjoXv6Bcw8BOX-28">
          <mxGeometry x="60" y="20" width="120" height="50" as="geometry" />
        </mxCell>
        <mxCell id="OANcIgUyjoXv6Bcw8BOX-32" style="edgeStyle=orthogonalEdgeStyle;rounded=0;orthogonalLoop=1;jettySize=auto;html=1;" edge="1" parent="WIyWlLk6GJQsqaUBKTNV-1" source="OANcIgUyjoXv6Bcw8BOX-31" target="OANcIgUyjoXv6Bcw8BOX-29">
          <mxGeometry relative="1" as="geometry" />
        </mxCell>
        <mxCell id="OANcIgUyjoXv6Bcw8BOX-31" value="&lt;span style=&quot;font-size: 8px;&quot;&gt;Avec nature de mesure&amp;nbsp; = à la nature de mesure de sceconfig et liée à la demande de lecture calculée&lt;/span&gt;" style="shape=note;whiteSpace=wrap;html=1;backgroundOutline=1;darkOpacity=0.05;" vertex="1" parent="WIyWlLk6GJQsqaUBKTNV-1">
          <mxGeometry x="-60" y="710" width="120" height="110" as="geometry" />
        </mxCell>
      </root>
    </mxGraphModel>
  </diagram>
</mxfile>
